<svg xmlns="http://www.w3.org/2000/svg" width="15" height="15" fill="none" xmlns:v="https://vecta.io/nano">
  <path d="M0 4.172h3.312V15H0V4.172zm12.707.669c.658.361 1.2.908 1.624 1.64s.637 1.481.637 2.245V15h-3.344V8.726c0-.17-.064-.361-.191-.573s-.244-.35-.35-.414c-.17-.106-.403-.159-.701-.159s-.531.042-.701.127l-1.369.669V15H4.968V4.172h3.344v.51c.658-.297 1.401-.435 2.229-.414s1.55.212 2.166.573zM1.656 0a1.6 1.6 0 0 1 1.178.478 1.6 1.6 0 0 1 .478 1.178c0 .467-.159.865-.478 1.194s-.711.494-1.178.494-.86-.165-1.178-.494S0 2.123 0 1.656A1.6 1.6 0 0 1 .478.478 1.6 1.6 0 0 1 1.656 0z" fill="#000"/>
</svg>